<svg viewBox="0 0 64 64" xmlns="http://www.w3.org/2000/svg">
  <defs></defs>
  <path d="M0 0h64v64H0z" style="fill: rgb(98, 30, 200);"></path>
  <g transform="matrix(1.928359, 0, 0, 1.928359, -117.341774, -29.707489)" style="">
    <path fill="#FFF" d="M 63.206 25 L 77.206 25 L 77.206 39 L 63.206 39 L 63.206 25 Z" style="fill-opacity: 0.11;"></path>
    <path d="M 63.206 25 L 63.206 39 L 77.206 39 L 77.206 25 L 63.206 25 Z M 76.206 38 L 64.206 38 L 64.206 26 L 76.206 26 L 76.206 38 Z" style="fill: rgb(255, 255, 255);"></path>
    <path d="M 74.306 29.3 L 73.906 29 C 73.806 28.9 73.606 28.9 73.506 29 L 68.806 33.8 L 66.806 31.8 C 66.706 31.7 66.506 31.7 66.406 31.8 L 66.106 32.2 C 66.006 32.3 66.006 32.5 66.106 32.6 L 68.206 34.7 L 68.606 35 C 68.706 35.1 68.906 35.1 69.006 35 L 69.406 34.6 L 74.306 29.7 C 74.406 29.6 74.406 29.4 74.306 29.3 L 74.306 29.3 Z" style="fill: rgb(255, 255, 255);"></path>
  </g>
  <g class="icon-color" transform="matrix(2.230482, 0, 0, 2.230482, 29.362314, 14.156141)" style="">
    <path d="m13.7 3.8-1.4-1.4c-.8-.8-2-.8-2.8 0L5.9 5.9c-.8.8-.8 2 0 2.8l1.2 1.2.9-.8L6.9 8c-.4-.4-.4-1 0-1.4l3.2-3.2c.4-.4 1-.4 1.4 0l1.1 1.1c.4.4.4 1 0 1.4l-1.3 1.3c.2.4.4.9.4 1.4l2-2c.7-.8.7-2.1 0-2.8z" style="fill: rgb(255, 255, 255);"></path>
    <path d="m8.9 6.1-.9.8L9.1 8c.4.4.4 1 0 1.4l-3.2 3.2c-.4.4-1 .4-1.4 0l-1.1-1.1c-.4-.4-.4-1 0-1.4l1.3-1.3c-.2-.4-.4-.9-.4-1.4l-2 2c-.8.8-.8 2 0 2.8l1.4 1.4c.8.8 2 .8 2.8 0l3.5-3.5c.8-.8.8-2 0-2.8L8.9 6.1z" style="fill: rgb(255, 255, 255);"></path>
  </g>
</svg>
